<svg width="30" height="28" viewBox="0 0 30 28" fill="none" xmlns="http://www.w3.org/2000/svg">
<path d="M28.125 27.75H1.875C1.62636 27.75 1.3879 27.6183 1.21209 27.3839C1.03627 27.1495 0.9375 26.8315 0.9375 26.5C0.9375 26.1685 1.03627 25.8505 1.21209 25.6161C1.3879 25.3817 1.62636 25.25 1.875 25.25H28.125C28.3736 25.25 28.6121 25.3817 28.7879 25.6161C28.9637 25.8505 29.0625 26.1685 29.0625 26.5C29.0625 26.8315 28.9637 27.1495 28.7879 27.3839C28.6121 27.6183 28.3736 27.75 28.125 27.75Z" fill="black" fill-opacity="0.8"/>
<path d="M28.125 15.25H1.875C1.62636 15.25 1.3879 15.1183 1.21209 14.8839C1.03627 14.6495 0.9375 14.3315 0.9375 14C0.9375 13.6685 1.03627 13.3505 1.21209 13.1161C1.3879 12.8817 1.62636 12.75 1.875 12.75H28.125C28.3736 12.75 28.6121 12.8817 28.7879 13.1161C28.9637 13.3505 29.0625 13.6685 29.0625 14C29.0625 14.3315 28.9637 14.6495 28.7879 14.8839C28.6121 15.1183 28.3736 15.25 28.125 15.25Z" fill="black" fill-opacity="0.8"/>
<path d="M28.125 2.75H1.875C1.62636 2.75 1.3879 2.6183 1.21209 2.38388C1.03627 2.14946 0.9375 1.83152 0.9375 1.5C0.9375 1.16848 1.03627 0.850537 1.21209 0.616117C1.3879 0.381696 1.62636 0.25 1.875 0.25H28.125C28.3736 0.25 28.6121 0.381696 28.7879 0.616117C28.9637 0.850537 29.0625 1.16848 29.0625 1.5C29.0625 1.83152 28.9637 2.14946 28.7879 2.38388C28.6121 2.6183 28.3736 2.75 28.125 2.75Z" fill="black" fill-opacity="0.8"/>
</svg>
